PathFileType	4	(X/Y/Z)	..\data\2014007\dynamic\2014007_C5_04.trc
DataRate	CameraRate	NumFrames	NumMarkers	Units	OrigDataRate	OrigDataStartFrame	OrigNumFrames
100.000000	100.000000	4	52	mm	100.000000	117	157
Frame#	Time	L_IAS			L_IPS			R_IPS			R_IAS			L_FTC			L_FLE			L_FME			L_FAX			L_TTC			L_FAL			L_TAM			L_FCC			L_FM1			L_FM2			L_FM5			R_FTC			R_FLE			R_FME			R_FAX			R_TTC			R_FAL			R_TAM			R_FCC			R_FM1			R_FM2			R_FM5			CV7			TV10			SXS			SJN			L_SIA			L_SRS			L_SAA			L_SAE			L_HLE			L_HME			L_UOA			L_RSP			L_UHE			L_HM2			L_HM5			R_SIA			R_SRS			R_SAA			R_SAE			R_HLE			R_HME			R_UOA			R_RSP			R_UHE			R_HM2			R_HM5			
		X1	Y1	Z1	X2	Y2	Z2	X3	Y3	Z3	X4	Y4	Z4	X5	Y5	Z5	X6	Y6	Z6	X7	Y7	Z7	X8	Y8	Z8	X9	Y9	Z9	X10	Y10	Z10	X11	Y11	Z11	X12	Y12	Z12	X13	Y13	Z13	X14	Y14	Z14	X15	Y15	Z15	X16	Y16	Z16	X17	Y17	Z17	X18	Y18	Z18	X19	Y19	Z19	X20	Y20	Z20	X21	Y21	Z21	X22	Y22	Z22	X23	Y23	Z23	X24	Y24	Z24	X25	Y25	Z25	X26	Y26	Z26	X27	Y27	Z27	X28	Y28	Z28	X29	Y29	Z29	X30	Y30	Z30	X31	Y31	Z31	X32	Y32	Z32	X33	Y33	Z33	X34	Y34	Z34	X35	Y35	Z35	X36	Y36	Z36	X37	Y37	Z37	X38	Y38	Z38	X39	Y39	Z39	X40	Y40	Z40	X41	Y41	Z41	X42	Y42	Z42	X43	Y43	Z43	X44	Y44	Z44	X45	Y45	Z45	X46	Y46	Z46	X47	Y47	Z47	X48	Y48	Z48	X49	Y49	Z49	X50	Y50	Z50	X51	Y51	Z51	X52	Y52	Z52	

118	1.17	361.0805053710938	902.3812255859377	119.7411422729493	154.4855194091797	964.4636230468752	187.2510833740235	154.1530914306641	968.849548339844	270.4023742675782	338.8889770507812	908.046813964844	372.0142517089845	312.2292175292969	877.100769042969	49.10942840576177	446.3391723632814	467.9436950683595	116.497299194336	422.2670898437501	451.1599121093751	235.4017639160157	435.0272521972657	400.3443298339845	110.684181213379	472.6302795410157	394.6403198242189	178.8172149658204	397.6463623046876	60.81864166259767	138.3674468994141	406.196014404297	75.35216522216798	220.9324035644532	338.8360290527344	23.24289512634278	178.3815002441407	523.6989746093751	18.69225883483887	228.4591217041017	534.3225097656251	36.05661010742188	177.8510131835938	504.8218078613282	19.38500785827637	125.205665588379	263.1572875976562	848.679138183594	429.0393981933595	204.5888519287109	441.0028076171876	388.4885253906251	220.6700134277344	428.8443298339845	256.3351745605469	150.1258392333984	395.9283752441407	387.0043334960939	196.5883331298828	352.7579345703126	337.4543457031251	-124.5393981933594	178.7532043457032	332.8731994628907	-88.22319793701176	184.3740997314453	253.2035369873047	-173.1641693115235	204.0973663330079	276.0614318847657	-74.18628692626957	54.268611907959	242.0517883300782	-67.38696289062506	52.99313735961915	291.5255432128907	-102.988265991211	63.3582000732422	335.6040344238282	190.2988128662109	1407.713989257813	222.9533843994141	147.4700012207031	1173.10546875	238.1292724609376	395.2607727050782	1161.02734375	214.3218383789064	322.0580749511719	1333.160278320313	214.0963439941407	129.0427856445312	1187.132446289063	148.5303955078126	148.3076934814453	1328.6357421875	146.0335388183594	172.496322631836	1333.309814453125	73.2818298339844	220.0516510009766	1337.558959960938	39.23584747314457	96.14707183837893	1042.96923828125	7.584732532501234	96.00526428222658	1033.961791992188	89.09790039062503	71.99251556396486	1038.527099609375	43.4446487426758	85.14835357666017	785.396667480469	21.67338943481447	37.21577453613283	809.9380493164065	-31.95349311828614	59.69310379028322	692.2911376953126	17.91173171997071	-16.91225624084473	744.9760742187501	-22.07998657226563	135.287109375	1200.096069335938	334.5784912109376	157.5164642333984	1329.998901367188	326.6181335449219	209.7875061035156	1352.441040039063	389.0768127441407	255.4668426513672	1356.373046875	405.6968383789064	272.1695861816406	1041.634033203125	499.647918701172	222.3823089599609	1025.238891601563	430.2972412109376	230.8345794677734	1008.109924316406	481.6498413085939	406.8439331054688	819.833435058594	441.1383666992189	375.9515991210938	814.9385375976565	513.1113281250001	445.8555297851563	747.5725097656251	436.6125793457033	390.6838989257813	740.1348876953126	518.7173461914064	
119	1.18	374.4156494140626	904.5117797851565	119.5577545166016	168.1434936523438	966.9422607421877	186.502182006836	167.5194549560547	970.6362304687502	269.7450561523438	351.887939453125	910.2923583984377	371.2539672851564	325.8731079101563	879.692321777344	48.53202438354498	452.0294799804689	466.9857788085939	115.5761108398438	427.9704589843751	450.7371215820314	234.6698150634767	439.4751281738282	399.5579528808595	109.8357086181641	477.4164123535157	393.4703369140626	177.7854614257813	397.9212036132814	60.82666778564455	138.3699798583985	406.8167419433595	75.4032440185547	220.7897033691407	339.1694030761719	23.45309066772461	178.3788757324219	523.8345336914064	18.93585014343262	228.4513702392579	534.8128662109376	36.33134460449219	177.6242218017579	505.0256958007814	19.72047805786133	124.5616302490235	276.6273498535156	849.4409790039065	428.0313720703127	231.5564422607422	440.230926513672	390.2354431152345	249.3952941894532	427.2108764648439	257.9326171875001	178.1271514892578	395.3903808593751	388.8192749023439	223.9127197265625	352.2701721191407	339.3756103515626	-101.9065628051759	186.1705322265625	333.5805969238282	-65.10251617431645	190.2833557128907	254.1601867675782	-149.9113159179688	212.3335723876954	276.3855285644532	-53.69860839843754	58.65156936645509	245.768051147461	-47.93402481079106	57.21960449218751	295.2655639648438	-83.2680282592774	70.25940704345705	338.0971374511719	204.3482971191407	1409.879272460938	222.1663513183595	161.2948608398438	1175.341186523438	237.0966186523438	409.172332763672	1163.231567382813	214.7834472656251	336.1573181152344	1335.433959960938	214.132293701172	143.4401397705078	1189.417602539063	147.0105285644532	162.8081665039062	1331.006225585938	144.794418334961	187.7461090087891	1335.582885742188	72.17290496826176	235.5456237792969	1339.7060546875	38.51266479492191	114.6444702148438	1043.47021484375	5.839276313781753	113.6438827514649	1034.624877929688	87.40712738037112	90.20964813232423	1038.46484375	41.54782867431643	108.7469253540039	785.5527954101565	20.36472702026369	60.66049957275393	808.9877929687502	-33.65430450439453	86.1581268310547	691.9688720703126	15.83001041412355	8.147476196289068	742.4735717773439	-24.13226127624512	148.6416015625	1202.391845703125	333.5147705078126	170.9657897949219	1332.286376953125	325.7753295898438	222.9404907226562	1354.745483398438	388.4665527343751	268.5907287597656	1358.650024414063	405.3133850097658	283.5560913085938	1043.747192382813	498.9703369140627	233.8485717773438	1027.85205078125	429.4996337890627	241.9772338867188	1010.7265625	480.9395751953127	415.1380004882813	820.0053710937502	441.1812744140627	384.6996154785157	816.004333496094	513.4244995117189	452.2398376464844	746.7022094726564	436.3745117187502	397.8551940917969	740.8201293945314	519.1608276367189	
120	1.19	387.3728637695314	906.522644042969	119.4039611816407	181.5176086425781	969.5168457031252	185.8242187500001	180.6343536376953	972.5786132812502	269.0798034667969	364.5127258300781	912.457702636719	370.7959289550782	338.9573059082032	882.0635986328127	48.07889556884771	456.9634399414064	466.0586242675782	114.7310485839845	432.9148559570313	450.3314208984376	234.0092773437501	443.195037841797	398.8152160644532	109.0669555664063	481.5107727050782	392.358123779297	176.8488159179688	398.0809020996095	60.76170349121095	138.3707733154298	407.2829589843751	75.4624710083008	220.6572570800782	339.4224853515626	23.56501388549805	178.4006805419922	523.8932495117189	19.30718994140625	228.4269561767579	535.1456298828126	36.70796585083009	177.4234161376954	505.1336364746095	20.08289337158203	124.0872116088868	289.6556396484375	850.4314575195315	427.0690307617189	258.8004760742188	440.0640563964845	391.8264465332033	278.0671997070312	426.5171203613282	259.3333740234376	206.3985595703125	395.4022216796876	390.4216613769532	251.7595672607422	352.4983215332032	341.0562744140626	-77.4633407592774	192.462387084961	334.0888061523438	-40.19301605224613	195.2459411621094	254.9053649902344	-125.164291381836	218.6674499511719	276.4194641113282	-29.92942428588871	62.59376907348634	249.7183074951172	-25.0793781280518	61.42768859863283	299.2668151855469	-60.37035369873053	76.77022552490236	340.8477478027344	218.3331909179688	1412.1494140625	221.4668579101563	174.9382629394531	1177.693359375	236.0811309814454	422.8695068359376	1165.364990234375	215.5203399658204	350.1159973144532	1337.7255859375	214.2964324951173	157.6968383789062	1191.842041015625	145.4542846679688	177.2463531494141	1333.517333984375	143.5907287597657	202.9664459228516	1337.989990234375	71.11583709716801	251.0307006835938	1341.9560546875	37.87680053710941	133.4906921386719	1043.983520507813	3.987350702285784	131.4985961914063	1035.241088867188	85.59077453613284	108.7578811645508	1038.360473632813	39.49114990234377	133.0499420166016	785.765075683594	18.99997520446779	84.8400115966797	808.0352783203127	-35.44331741333008	113.5980682373047	691.7339477539064	13.59004878997805	34.14913558959962	739.8735351562501	-26.36404800415039	161.7779235839844	1204.748779296875	332.3980712890626	184.2572479248047	1334.635498046875	324.9708557128907	235.8801574707031	1357.0869140625	387.9351806640627	281.4936828613281	1360.970092773438	405.0467529296877	294.72802734375	1045.945190429688	498.4685668945314	245.0627746582031	1030.497802734375	428.9321289062502	252.9272918701172	1013.406005859375	480.3994445800783	423.3809509277344	820.4375610351565	441.4126586914064	393.3747253417969	817.2714843750002	513.9074096679689	458.6385192871094	746.1745605468751	436.3235168457033	405.0310058593751	741.7516479492189	519.7695922851564	
121	1.2	400.0408935546876	908.4265136718752	119.2509155273438	194.6509399414063	972.153747558594	185.208969116211	193.5368804931641	974.6719970703127	268.4000549316407	376.823974609375	914.4947509765627	370.626922607422	351.5467529296876	884.195739746094	47.73918914794927	461.2752990722657	465.201873779297	114.0044174194337	437.1700439453126	449.9625244140626	233.4404602050782	446.3358154296876	398.147918701172	108.4101638793946	485.0015258789064	391.3213195800782	176.0616912841798	398.1577758789064	60.63902664184572	138.3748168945313	407.6181030273439	75.51942443847658	220.5462341308595	339.5852661132813	23.61790657043457	178.4365539550782	523.8886718750001	19.69589424133301	228.4054565429689	535.3475341796876	37.08366012573243	177.2689056396485	505.1643981933595	20.40069198608399	123.7813110351563	302.3012084960938	851.6828613281252	426.165985107422	286.1519165039062	440.5828247070314	393.2507629394533	306.5433044433594	426.8179626464845	260.5505981445314	234.7218780517578	396.0407714843751	391.8028869628908	279.9768676757812	353.4806823730469	342.5256652832032	-51.3251686096192	197.3816375732422	334.4122924804688	-13.57780170440677	199.0627593994141	255.4535675048829	-99.03531646728521	222.8858032226563	276.1815185546876	-3.015548229217561	65.88439178466798	253.7559051513672	1.080163002014123	65.37207794189455	303.3624877929688	-34.39887237548833	82.54966735839845	343.7430114746094	232.235336303711	1414.493530273438	220.8664093017579	188.4125366210938	1180.126342773438	235.0910797119141	436.3611450195314	1167.42041015625	216.506805419922	363.9263000488282	1340.016235351563	214.5738983154298	171.8171081542969	1194.372680664063	143.8768157958985	191.6039123535156	1336.128662109375	142.4421539306641	218.1140289306641	1340.502685546875	70.12882995605473	266.4607238769532	1344.289794921875	37.3373184204102	152.6928405761719	1044.493286132813	2.042495965957661	149.5634002685547	1035.793212890625	83.65079498291018	127.6323318481446	1038.20654296875	37.27742767333987	158.0049438476563	786.0537109375002	17.60289001464846	109.7373352050782	807.1128540039065	-37.31746673583984	141.9026947021485	691.6278076171876	11.25746059417727	61.06482315063478	737.2506713867189	-28.79325103759766	174.7193145751953	1207.134643554688	331.2437744140626	197.4081268310547	1337.01220703125	324.2117004394532	248.6321868896484	1359.43798828125	387.4805297851564	294.1975708007812	1363.306640625	404.8896789550783	305.6794738769531	1048.195068359375	498.1263427734377	256.0260009765625	1033.152709960938	428.5690307617189	263.6768493652344	1016.117004394531	480.0102539062502	431.6096191406251	821.1038818359377	441.844940185547	401.9696044921876	818.7027587890627	514.5529785156251	465.1392211914063	745.9788818359376	436.502899169922	412.2260437011719	742.8911132812501	520.5354003906251	
